<svg xmlns="http://www.w3.org/2000/svg" width="631.49" height="180.02" viewBox="0 0 631.49 180.02">
  <g id="WPWallet_Logo_White-" transform="translate(-18.06 -13.65)">
    <path id="Path_1" data-name="Path 1" d="M276.88,117.44l-5.64-58.35H253.7l-5.64,58.35-5.31-58.35H226.76l9.31,91.87h20.85l5.42-51.22,5.43,51.22h19.69l9.32-91.87H282.19Z" fill="#44597d"/>
    <path id="Path_2" data-name="Path 2" d="M339.89,65.1c-3.72-4-9.3-6-16.6-6H301.38V151h16.48V114.55h5.43c7.3,0,12.89-2,16.6-6s5.57-9.79,5.57-17.31V82.41C345.46,74.89,343.58,69.07,339.89,65.1Zm-22,9.2h5.43a5.4,5.4,0,0,1,4.27,1.51c.94,1,1.42,3,1.42,5.71v10.6c0,2.75-.48,4.66-1.42,5.71a5.4,5.4,0,0,1-4.27,1.51h-5.43Z" fill="#44597d"/>
    <path id="Path_3" data-name="Path 3" d="M393.65,60.61H378.87l-6.64,68.74h-.81l-.03-.27-6.23-68.47H352.22l9.01,88.83h18.11l6.39-60.3h.8l6.39,60.3h16.96l9.01-88.83H407.36l-6.26,68.74h-.8Z" fill="#44597d"/>
    <path id="Path_4" data-name="Path 4" d="M435.71,60.61l-14.47,88.84h12.42l2.55-17.51h16.54l2.51,17.51H468.7L454.23,60.61Zm2.08,59.8L444,75.59h.79l6.34,44.82Z" fill="#44597d"/>
    <path id="Path_5" data-name="Path 5" d="M489.58,60.61H476.13v88.83h36.58V137.28H489.58Z" fill="#44597d"/>
    <path id="Path_6" data-name="Path 6" d="M533.53,60.61H520.08v88.83h36.58V137.28H533.53Z" fill="#44597d"/>
    <path id="Path_7" data-name="Path 7" d="M577.49,109.2h19.29V97.03H577.49V72.78h24.27V60.61H564.04v88.83h37.72V137.28H577.49Z" fill="#44597d"/>
    <path id="Path_8" data-name="Path 8" d="M621.41,149.44h13.45V72.78h14.69V60.61H606.71V72.78h14.7Z" fill="#44597d"/>
    <path id="Path_9" data-name="Path 9" d="M195.52,47.31,195,159.5l-88.46,34.17L18.06,159.36v-112l88.73-33.71Zm-20.13,95.62,1.06-8,3.09-23.37q1.47-11.16,2.93-22.31l3.3-25.16q.64-5,1.3-10c.1-.75,0-1.29-.84-1.6-5.08-1.9-10.15-3.84-15.21-5.78-.83-.32-1.23-.22-1.33.8-.37,3.66-.81,7.33-1.23,11Q167.27,68.74,166.09,79,165,88,164,97a1.659,1.659,0,0,1-.26,1.21.87.87,0,0,1-.28-.72q-1.19-9.37-2.36-18.74-1.23-9.9-2.48-19.81c-.67-5.37-1.36-10.74-2-16.12a2.3,2.3,0,0,0-1.64-2.2c-3.82-1.38-7.59-2.87-11.38-4.32a1,1,0,0,0-1,0q-3.63,25.5-7.29,51.17H135c-.07-.43-.17-.86-.21-1.29-.42-4.71-.82-9.42-1.27-14.13-.6-6.42-1.25-12.84-1.86-19.26-.65-6.9-1.3-13.8-1.91-20.71a1.65,1.65,0,0,0-1.24-1.64c-3.74-1.38-7.43-2.86-11.16-4.23a35.33,35.33,0,0,0-5-1.79,1.75,1.75,0,0,0-.12,1.29q.8,7.29,1.61,14.58.9,8.11,1.82,16.25t1.79,16.13q.9,8.19,1.82,16.37T121,105.21c.64,5.65,1.29,11.31,1.9,17a1.54,1.54,0,0,0,1.11,1.4c5.41,2,10.83,4.08,16.23,6.16.9.34,1.16.13,1.29-.82.63-4.61,1.32-9.21,2-13.81q2.23-15.36,4.49-30.72c.39-2.65.79-5.29,1.22-8.1a2.72,2.72,0,0,1,.47,1.54q1.31,10,2.61,20l2.48,19.44c.76,5.89,1.55,11.77,2.29,17.66a1.91,1.91,0,0,0,1.4,1.72c4.59,1.71,9.16,3.48,13.75,5.2a11.74,11.74,0,0,0,3.15,1.05ZM100.1,74.75a8.3,8.3,0,0,0-1,.31L41.76,97l-15.08,5.8c-.51.2-1.14.34-1.17,1a13.07,13.07,0,0,0,.09,3.31,1.16,1.16,0,0,0,1-.09l6.4-2.41q8.16-3.14,16.32-6.26c1.44-.55,1.44-.52,1.9.89a5.68,5.68,0,0,0,5,4.16,12.81,12.81,0,0,0,8.61-2c4.32-2.56,7.45-6.09,8.6-11.09a2.11,2.11,0,0,1,1.44-1.71c2.7-1,5.4-2.07,8.1-3.1L99,79.3c.52-.2,1.13-.38,1.17-1.06a13.31,13.31,0,0,0-.07-3.49ZM25.35,57.86a1.53,1.53,0,0,0,1.13-.12L50.57,48.5,77,38.37l22.16-8.52c.44-.17,1.07-.26,1.16-.77a9.55,9.55,0,0,0,0-3.8c-.44.13-.71.2-1,.3L69.49,37,43.27,47.06,26.51,53.5c-.53.21-1.15.35-1.21,1A13.18,13.18,0,0,0,25.35,57.86Zm75-22.24a1.19,1.19,0,0,0-1,.08l-36.47,14q-17.5,6.74-35.06,13.48c-3,1.15-2.51.64-2.58,3.84,0,1,.29,1.26,1.29.88,9.6-3.71,19.21-7.37,28.81-11.05l26.23-10L99.23,40c.56-.21,1.2-.36,1.21-1.14a15.879,15.879,0,0,0-.08-3.24Zm0,9.4c-.48.15-.75.21-1,.31L72.66,55.54,46.33,65.63q-9.78,3.75-19.56,7.53c-.51.19-1.18.29-1.24,1a15.07,15.07,0,0,0,0,3.36,1.15,1.15,0,0,0,1.06-.07L56,66.18l26.11-10q8.49-3.25,17-6.54c.54-.21,1.28-.3,1.35-1a13.6,13.6,0,0,0-.12-3.64Zm0,10a1.83,1.83,0,0,0-1.2.23L42,77.19,26.7,83.07c-.48.18-1.08.3-1.14.93a15.17,15.17,0,0,0,0,3.37,1,1,0,0,0,1-.05L58.88,75,85.1,65l14.16-5.46c.51-.2,1.15-.34,1.17-1.05a13,13,0,0,0-.1-3.44Zm-.11,9.85c-.35-.12-.63.08-.92.19l-23.53,9L49.55,84.15,26.82,92.89c-.47.18-1.14.25-1.23.85a10.08,10.08,0,0,0,0,3.71c.41-.11.68-.15.93-.24L56.84,85.6,83.29,75.46l15.65-6c.6-.23,1.26-.43,1.27-1.24.02-1.09.01-2.16.01-3.32Z" fill="#44597d"/>
  </g>
</svg>
