<svg xmlns="http://www.w3.org/2000/svg" width="16" height="16.23" viewBox="0 0 16 16.23"><path d="M38.11,17.865l-.052,10.115L30.083,31.06,22.11,27.967v-10.1l8-3.039ZM36.3,26.484l.1-.721q.14-1.053.278-2.108l.265-2.01q.149-1.135.3-2.269c.04-.3.078-.6.118-.9a.114.114,0,0,0-.077-.144q-.687-.257-1.371-.52c-.075-.029-.11-.02-.119.071-.033.331-.073.661-.111.992l-.214,1.852q-.095.811-.191,1.623a.145.145,0,0,1-.023.109.082.082,0,0,1-.025-.066q-.105-.844-.212-1.689l-.224-1.787c-.061-.484-.123-.968-.18-1.452a.21.21,0,0,0-.149-.2c-.343-.124-.684-.259-1.026-.389a.09.09,0,0,0-.09,0c-.218,1.533-.438,3.073-.657,4.613h-.028c-.006-.039-.015-.078-.019-.116-.039-.425-.075-.849-.114-1.274-.054-.579-.113-1.158-.168-1.736-.06-.622-.118-1.244-.172-1.867a.151.151,0,0,0-.113-.149c-.336-.124-.669-.257-1.006-.38a3.173,3.173,0,0,0-.451-.161.151.151,0,0,0-.011.115l.144,1.314c.054.489.11.977.164,1.466s.107.969.161,1.454l.165,1.476q.079.728.161,1.454c.057.51.116,1.02.171,1.533a.137.137,0,0,0,.1.126q.732.276,1.462.554c.082.032.105.012.117-.073.056-.416.119-.83.18-1.245l.406-2.77c.034-.239.071-.477.109-.73a.246.246,0,0,1,.043.138q.118.9.234,1.8c.076.584.149,1.172.224,1.754.069.531.14,1.061.206,1.592a.17.17,0,0,0,.126.155c.414.154.826.314,1.24.468a1,1,0,0,0,.281.1Zm-6.788-6.147c-.041.013-.069.019-.1.029L24.248,22.35l-1.36.519c-.047.018-.1.031-.105.095a1.178,1.178,0,0,0,.007.3.1.1,0,0,0,.09-.009l.579-.222c.49-.188.98-.378,1.47-.564.131-.05.131-.047.171.08a.514.514,0,0,0,.446.375,1.161,1.161,0,0,0,.777-.18,1.552,1.552,0,0,0,.775-1,.188.188,0,0,1,.129-.154c.244-.09.488-.187.731-.28l1.451-.555c.048-.018.1-.035.105-.1A1.239,1.239,0,0,0,29.507,20.338Zm-6.74-1.525a.142.142,0,0,0,.1-.01l2.171-.833,2.385-.911,2-.77c.04-.015.1-.023.1-.069a.861.861,0,0,0,0-.343l-.09.026-2.69,1.033-2.365.9-1.511.586c-.047.018-.1.032-.108.09A1.187,1.187,0,0,0,22.767,18.812Zm6.762-2a.1.1,0,0,0-.09.007l-3.282,1.264-3.166,1.215c-.27.1-.227.059-.234.346,0,.09.026.114.117.079l2.6-1,2.365-.9q.8-.306,1.591-.614c.05-.019.109-.033.11-.1a1.367,1.367,0,0,0-.008-.293Zm0,.847c-.044.013-.069.019-.09.027l-2.405.924-2.374.909-1.764.679c-.046.018-.105.027-.111.09a1.359,1.359,0,0,0,0,.3.1.1,0,0,0,.1-.007l2.646-1.014,2.353-.9,1.533-.591c.049-.018.115-.026.122-.09a1.307,1.307,0,0,0,0-.325Zm0,.9a.169.169,0,0,0-.108.022l-5.157,1.98-1.376.529c-.043.017-.1.027-.1.085a1.424,1.424,0,0,0,0,.3.1.1,0,0,0,.09,0l2.917-1.12,2.363-.9,1.278-.492c.046-.017.1-.03.105-.09a1.172,1.172,0,0,0-.009-.311Zm-.01.889c-.032-.012-.057.007-.083.017l-2.121.811-2.365.9q-1.025.392-2.049.788c-.042.016-.1.023-.111.076a.929.929,0,0,0,0,.334.7.7,0,0,0,.085-.022l2.733-1.037,2.385-.913,1.41-.541c.055-.021.114-.039.115-.113,0-.1,0-.194,0-.3Z" transform="translate(-22.11 -14.83)" fill="#f8f8f9"/></svg>